<svg width="647" height="282" viewBox="0 0 647 282" fill="none" xmlns="http://www.w3.org/2000/svg">
<path d="M12.2032 0H0V12.2138H12.2032V0Z" fill="#EAEAEA"/>
<path d="M36.6202 0H24.417V12.2138H36.6202V0Z" fill="#EAEAEA"/>
<path d="M61.0382 0H48.835V12.2138H61.0382V0Z" fill="#EAEAEA"/>
<path d="M85.4444 0H73.2412V12.2138H85.4444V0Z" fill="#EAEAEA"/>
<path d="M109.861 0H97.6582V12.2138H109.861V0Z" fill="#EAEAEA"/>
<path d="M134.279 0H122.076V12.2138H134.279V0Z" fill="#EAEAEA"/>
<path d="M158.696 0H146.493V12.2138H158.696V0Z" fill="#EAEAEA"/>
<path d="M183.113 0H170.91V12.2138H183.113V0Z" fill="#EAEAEA"/>
<path d="M207.521 0H195.317V12.2138H207.521V0Z" fill="#EAEAEA"/>
<path d="M231.938 0H219.734V12.2138H231.938V0Z" fill="#EAEAEA"/>
<path d="M256.355 0H244.151V12.2138H256.355V0Z" fill="#EAEAEA"/>
<path d="M280.773 0H268.569V12.2138H280.773V0Z" fill="#EAEAEA"/>
<path d="M305.19 0H292.986V12.2138H305.19V0Z" fill="#EAEAEA"/>
<path d="M329.608 0H317.404V12.2138H329.608V0Z" fill="#EAEAEA"/>
<path d="M354.014 0H341.811V12.2138H354.014V0Z" fill="#EAEAEA"/>
<path d="M378.431 0H366.228V12.2138H378.431V0Z" fill="#EAEAEA"/>
<path d="M402.848 0H390.645V12.2138H402.848V0Z" fill="#EAEAEA"/>
<path d="M427.266 0H415.062V12.2138H427.266V0Z" fill="#EAEAEA"/>
<path d="M451.683 0H439.479V12.2138H451.683V0Z" fill="#EAEAEA"/>
<path d="M476.089 0H463.886V12.2138H476.089V0Z" fill="#EAEAEA"/>
<path d="M500.507 0H488.304V12.2138H500.507V0Z" fill="#EAEAEA"/>
<path d="M524.924 0H512.721V12.2138H524.924V0Z" fill="#EAEAEA"/>
<path d="M549.342 0H537.139V12.2138H549.342V0Z" fill="#EAEAEA"/>
<path d="M573.759 0H561.556V12.2138H573.759V0Z" fill="#EAEAEA"/>
<path d="M598.165 0H585.962V12.2138H598.165V0Z" fill="#EAEAEA"/>
<path d="M622.582 0H610.379V12.2138H622.582V0Z" fill="#EAEAEA"/>
<path d="M647 0H634.797V12.2138H647V0Z" fill="#EAEAEA"/>
<path d="M12.2032 24.4385H0V36.6523H12.2032V24.4385Z" fill="#EAEAEA"/>
<path d="M36.6202 24.4385H24.417V36.6523H36.6202V24.4385Z" fill="#EAEAEA"/>
<path d="M61.0382 24.4385H48.835V36.6523H61.0382V24.4385Z" fill="#EAEAEA"/>
<path d="M85.4444 24.4385H73.2412V36.6523H85.4444V24.4385Z" fill="#EAEAEA"/>
<path d="M109.861 24.4385H97.6582V36.6523H109.861V24.4385Z" fill="#EAEAEA"/>
<path d="M134.279 24.4385H122.076V36.6523H134.279V24.4385Z" fill="#EAEAEA"/>
<path d="M158.696 24.4385H146.493V36.6523H158.696V24.4385Z" fill="#EAEAEA"/>
<path d="M183.113 24.4385H170.91V36.6523H183.113V24.4385Z" fill="#EAEAEA"/>
<path d="M207.521 24.4385H195.317V36.6523H207.521V24.4385Z" fill="#EAEAEA"/>
<path d="M231.938 24.4385H219.734V36.6523H231.938V24.4385Z" fill="#EAEAEA"/>
<path d="M256.355 24.4385H244.151V36.6523H256.355V24.4385Z" fill="#EAEAEA"/>
<path d="M280.773 24.4385H268.569V36.6523H280.773V24.4385Z" fill="#EAEAEA"/>
<path d="M305.19 24.4385H292.986V36.6523H305.19V24.4385Z" fill="#EAEAEA"/>
<path d="M329.608 24.4385H317.404V36.6523H329.608V24.4385Z" fill="#EAEAEA"/>
<path d="M354.014 24.4385H341.811V36.6523H354.014V24.4385Z" fill="#EAEAEA"/>
<path d="M378.431 24.4385H366.228V36.6523H378.431V24.4385Z" fill="#EAEAEA"/>
<path d="M402.848 24.4385H390.645V36.6523H402.848V24.4385Z" fill="#EAEAEA"/>
<path d="M427.266 24.4385H415.062V36.6523H427.266V24.4385Z" fill="#EAEAEA"/>
<path d="M451.683 24.4385H439.479V36.6523H451.683V24.4385Z" fill="#EAEAEA"/>
<path d="M476.089 24.4385H463.886V36.6523H476.089V24.4385Z" fill="#EAEAEA"/>
<path d="M500.507 24.4385H488.304V36.6523H500.507V24.4385Z" fill="#EAEAEA"/>
<path d="M524.924 24.4385H512.721V36.6523H524.924V24.4385Z" fill="#EAEAEA"/>
<path d="M549.342 24.4385H537.139V36.6523H549.342V24.4385Z" fill="#EAEAEA"/>
<path d="M573.759 24.4385H561.556V36.6523H573.759V24.4385Z" fill="#EAEAEA"/>
<path d="M598.165 24.4385H585.962V36.6523H598.165V24.4385Z" fill="#EAEAEA"/>
<path d="M622.582 24.4385H610.379V36.6523H622.582V24.4385Z" fill="#EAEAEA"/>
<path d="M647 24.4385H634.797V36.6523H647V24.4385Z" fill="#EAEAEA"/>
<path d="M12.2032 48.8771H0V61.0909H12.2032V48.8771Z" fill="#EAEAEA"/>
<path d="M36.6202 48.8771H24.417V61.0909H36.6202V48.8771Z" fill="#EAEAEA"/>
<path d="M61.0382 48.8771H48.835V61.0909H61.0382V48.8771Z" fill="#EAEAEA"/>
<path d="M85.4444 48.8771H73.2412V61.0909H85.4444V48.8771Z" fill="#EAEAEA"/>
<path d="M109.861 48.8771H97.6582V61.0909H109.861V48.8771Z" fill="#EAEAEA"/>
<path d="M134.279 48.8771H122.076V61.0909H134.279V48.8771Z" fill="#EAEAEA"/>
<path d="M158.696 48.8771H146.493V61.0909H158.696V48.8771Z" fill="#EAEAEA"/>
<path d="M183.113 48.8771H170.91V61.0909H183.113V48.8771Z" fill="#EAEAEA"/>
<path d="M207.521 48.8771H195.317V61.0909H207.521V48.8771Z" fill="#EAEAEA"/>
<path d="M231.938 48.8771H219.734V61.0909H231.938V48.8771Z" fill="#EAEAEA"/>
<path d="M256.355 48.8771H244.151V61.0909H256.355V48.8771Z" fill="#EAEAEA"/>
<path d="M280.773 48.8771H268.569V61.0909H280.773V48.8771Z" fill="#EAEAEA"/>
<path d="M305.19 48.8771H292.986V61.0909H305.19V48.8771Z" fill="#EAEAEA"/>
<path d="M329.608 48.8771H317.404V61.0909H329.608V48.8771Z" fill="#EAEAEA"/>
<path d="M354.014 48.8771H341.811V61.0909H354.014V48.8771Z" fill="#EAEAEA"/>
<path d="M378.431 48.8771H366.228V61.0909H378.431V48.8771Z" fill="#EAEAEA"/>
<path d="M402.848 48.8771H390.645V61.0909H402.848V48.8771Z" fill="#EAEAEA"/>
<path d="M427.266 48.8771H415.062V61.0909H427.266V48.8771Z" fill="#EAEAEA"/>
<path d="M451.683 48.8771H439.479V61.0909H451.683V48.8771Z" fill="#EAEAEA"/>
<path d="M476.089 48.8771H463.886V61.0909H476.089V48.8771Z" fill="#EAEAEA"/>
<path d="M500.507 48.8771H488.304V61.0909H500.507V48.8771Z" fill="#EAEAEA"/>
<path d="M524.924 48.8771H512.721V61.0909H524.924V48.8771Z" fill="#EAEAEA"/>
<path d="M549.342 48.8771H537.139V61.0909H549.342V48.8771Z" fill="#EAEAEA"/>
<path d="M573.759 48.8771H561.556V61.0909H573.759V48.8771Z" fill="#EAEAEA"/>
<path d="M598.165 48.8771H585.962V61.0909H598.165V48.8771Z" fill="#EAEAEA"/>
<path d="M622.582 48.8771H610.379V61.0909H622.582V48.8771Z" fill="#EAEAEA"/>
<path d="M647 48.8771H634.797V61.0909H647V48.8771Z" fill="#EAEAEA"/>
<path d="M12.2032 73.3047H0V85.5185H12.2032V73.3047Z" fill="#EAEAEA"/>
<path d="M36.6202 73.3047H24.417V85.5185H36.6202V73.3047Z" fill="#EAEAEA"/>
<path d="M61.0382 73.3047H48.835V85.5185H61.0382V73.3047Z" fill="#EAEAEA"/>
<path d="M85.4444 73.3047H73.2412V85.5185H85.4444V73.3047Z" fill="#EAEAEA"/>
<path d="M109.861 73.3047H97.6582V85.5185H109.861V73.3047Z" fill="#EAEAEA"/>
<path d="M134.279 73.3047H122.076V85.5185H134.279V73.3047Z" fill="#EAEAEA"/>
<path d="M158.696 73.3047H146.493V85.5185H158.696V73.3047Z" fill="#EAEAEA"/>
<path d="M183.113 73.3047H170.91V85.5185H183.113V73.3047Z" fill="#EAEAEA"/>
<path d="M207.521 73.3047H195.317V85.5185H207.521V73.3047Z" fill="#EAEAEA"/>
<path d="M231.938 73.3047H219.734V85.5185H231.938V73.3047Z" fill="#EAEAEA"/>
<path d="M256.355 73.3047H244.151V85.5185H256.355V73.3047Z" fill="#EAEAEA"/>
<path d="M280.773 73.3047H268.569V85.5185H280.773V73.3047Z" fill="#EAEAEA"/>
<path d="M305.19 73.3047H292.986V85.5185H305.19V73.3047Z" fill="#EAEAEA"/>
<path d="M329.608 73.3047H317.404V85.5185H329.608V73.3047Z" fill="#EAEAEA"/>
<path d="M354.014 73.3047H341.811V85.5185H354.014V73.3047Z" fill="#EAEAEA"/>
<path d="M378.431 73.3047H366.228V85.5185H378.431V73.3047Z" fill="#EAEAEA"/>
<path d="M402.848 73.3047H390.645V85.5185H402.848V73.3047Z" fill="#EAEAEA"/>
<path d="M427.266 73.3047H415.062V85.5185H427.266V73.3047Z" fill="#EAEAEA"/>
<path d="M451.683 73.3047H439.479V85.5185H451.683V73.3047Z" fill="#EAEAEA"/>
<path d="M476.089 73.3047H463.886V85.5185H476.089V73.3047Z" fill="#EAEAEA"/>
<path d="M500.507 73.3047H488.304V85.5185H500.507V73.3047Z" fill="#EAEAEA"/>
<path d="M524.924 73.3047H512.721V85.5185H524.924V73.3047Z" fill="#EAEAEA"/>
<path d="M549.342 73.3047H537.139V85.5185H549.342V73.3047Z" fill="#EAEAEA"/>
<path d="M573.759 73.3047H561.556V85.5185H573.759V73.3047Z" fill="#EAEAEA"/>
<path d="M598.165 73.3047H585.962V85.5185H598.165V73.3047Z" fill="#EAEAEA"/>
<path d="M622.582 73.3047H610.379V85.5185H622.582V73.3047Z" fill="#EAEAEA"/>
<path d="M647 73.3047H634.797V85.5185H647V73.3047Z" fill="#EAEAEA"/>
<path d="M12.2032 97.7433H0V109.957H12.2032V97.7433Z" fill="#EAEAEA"/>
<path d="M36.6202 97.7433H24.417V109.957H36.6202V97.7433Z" fill="#EAEAEA"/>
<path d="M61.0382 97.7433H48.835V109.957H61.0382V97.7433Z" fill="#EAEAEA"/>
<path d="M85.4444 97.7433H73.2412V109.957H85.4444V97.7433Z" fill="#EAEAEA"/>
<path d="M109.861 97.7433H97.6582V109.957H109.861V97.7433Z" fill="#EAEAEA"/>
<path d="M134.279 97.7433H122.076V109.957H134.279V97.7433Z" fill="#EAEAEA"/>
<path d="M158.696 97.7433H146.493V109.957H158.696V97.7433Z" fill="#EAEAEA"/>
<path d="M183.113 97.7433H170.91V109.957H183.113V97.7433Z" fill="#EAEAEA"/>
<path d="M207.521 97.7433H195.317V109.957H207.521V97.7433Z" fill="#EAEAEA"/>
<path d="M231.938 97.7433H219.734V109.957H231.938V97.7433Z" fill="#EAEAEA"/>
<path d="M256.355 97.7433H244.151V109.957H256.355V97.7433Z" fill="#EAEAEA"/>
<path d="M280.773 97.7433H268.569V109.957H280.773V97.7433Z" fill="#EAEAEA"/>
<path d="M305.19 97.7433H292.986V109.957H305.19V97.7433Z" fill="#EAEAEA"/>
<path d="M329.608 97.7433H317.404V109.957H329.608V97.7433Z" fill="#EAEAEA"/>
<path d="M354.014 97.7433H341.811V109.957H354.014V97.7433Z" fill="#EAEAEA"/>
<path d="M378.431 97.7433H366.228V109.957H378.431V97.7433Z" fill="#EAEAEA"/>
<path d="M402.848 97.7433H390.645V109.957H402.848V97.7433Z" fill="#EAEAEA"/>
<path d="M427.266 97.7433H415.062V109.957H427.266V97.7433Z" fill="#EAEAEA"/>
<path d="M451.683 97.7433H439.479V109.957H451.683V97.7433Z" fill="#EAEAEA"/>
<path d="M476.089 97.7433H463.886V109.957H476.089V97.7433Z" fill="#EAEAEA"/>
<path d="M500.507 97.7433H488.304V109.957H500.507V97.7433Z" fill="#EAEAEA"/>
<path d="M524.924 97.7433H512.721V109.957H524.924V97.7433Z" fill="#EAEAEA"/>
<path d="M549.342 97.7433H537.139V109.957H549.342V97.7433Z" fill="#EAEAEA"/>
<path d="M573.759 97.7433H561.556V109.957H573.759V97.7433Z" fill="#EAEAEA"/>
<path d="M598.165 97.7433H585.962V109.957H598.165V97.7433Z" fill="#EAEAEA"/>
<path d="M622.582 97.7433H610.379V109.957H622.582V97.7433Z" fill="#EAEAEA"/>
<path d="M647 97.7433H634.797V109.957H647V97.7433Z" fill="#EAEAEA"/>
<path d="M12.2032 122.182H0V134.396H12.2032V122.182Z" fill="#EAEAEA"/>
<path d="M36.6202 122.182H24.417V134.396H36.6202V122.182Z" fill="#EAEAEA"/>
<path d="M61.0382 122.182H48.835V134.396H61.0382V122.182Z" fill="#EAEAEA"/>
<path d="M85.4444 122.182H73.2412V134.396H85.4444V122.182Z" fill="#EAEAEA"/>
<path d="M109.861 122.182H97.6582V134.396H109.861V122.182Z" fill="#EAEAEA"/>
<path d="M134.279 122.182H122.076V134.396H134.279V122.182Z" fill="#EAEAEA"/>
<path d="M158.696 122.182H146.493V134.396H158.696V122.182Z" fill="#EAEAEA"/>
<path d="M183.113 122.182H170.91V134.396H183.113V122.182Z" fill="#EAEAEA"/>
<path d="M207.521 122.182H195.317V134.396H207.521V122.182Z" fill="#EAEAEA"/>
<path d="M231.938 122.182H219.734V134.396H231.938V122.182Z" fill="#EAEAEA"/>
<path d="M256.355 122.182H244.151V134.396H256.355V122.182Z" fill="#EAEAEA"/>
<path d="M280.773 122.182H268.569V134.396H280.773V122.182Z" fill="#EAEAEA"/>
<path d="M305.19 122.182H292.986V134.396H305.19V122.182Z" fill="#EAEAEA"/>
<path d="M329.608 122.182H317.404V134.396H329.608V122.182Z" fill="#EAEAEA"/>
<path d="M354.014 122.182H341.811V134.396H354.014V122.182Z" fill="#EAEAEA"/>
<path d="M378.431 122.182H366.228V134.396H378.431V122.182Z" fill="#EAEAEA"/>
<path d="M402.848 122.182H390.645V134.396H402.848V122.182Z" fill="#EAEAEA"/>
<path d="M427.266 122.182H415.062V134.396H427.266V122.182Z" fill="#EAEAEA"/>
<path d="M451.683 122.182H439.479V134.396H451.683V122.182Z" fill="#EAEAEA"/>
<path d="M476.089 122.182H463.886V134.396H476.089V122.182Z" fill="#EAEAEA"/>
<path d="M500.507 122.182H488.304V134.396H500.507V122.182Z" fill="#EAEAEA"/>
<path d="M524.924 122.182H512.721V134.396H524.924V122.182Z" fill="#EAEAEA"/>
<path d="M549.342 122.182H537.139V134.396H549.342V122.182Z" fill="#EAEAEA"/>
<path d="M573.759 122.182H561.556V134.396H573.759V122.182Z" fill="#EAEAEA"/>
<path d="M598.165 122.182H585.962V134.396H598.165V122.182Z" fill="#EAEAEA"/>
<path d="M622.582 122.182H610.379V134.396H622.582V122.182Z" fill="#EAEAEA"/>
<path d="M647 122.182H634.797V134.396H647V122.182Z" fill="#EAEAEA"/>
<path d="M12.2032 146.62H0V158.834H12.2032V146.62Z" fill="#EAEAEA"/>
<path d="M36.6202 146.62H24.417V158.834H36.6202V146.62Z" fill="#EAEAEA"/>
<path d="M61.0382 146.62H48.835V158.834H61.0382V146.62Z" fill="#EAEAEA"/>
<path d="M85.4444 146.62H73.2412V158.834H85.4444V146.62Z" fill="#EAEAEA"/>
<path d="M109.861 146.62H97.6582V158.834H109.861V146.62Z" fill="#EAEAEA"/>
<path d="M134.279 146.62H122.076V158.834H134.279V146.62Z" fill="#EAEAEA"/>
<path d="M158.696 146.62H146.493V158.834H158.696V146.62Z" fill="#EAEAEA"/>
<path d="M183.113 146.62H170.91V158.834H183.113V146.62Z" fill="#EAEAEA"/>
<path d="M207.521 146.62H195.317V158.834H207.521V146.62Z" fill="#EAEAEA"/>
<path d="M231.938 146.62H219.734V158.834H231.938V146.62Z" fill="#EAEAEA"/>
<path d="M256.355 146.62H244.151V158.834H256.355V146.62Z" fill="#EAEAEA"/>
<path d="M280.773 146.62H268.569V158.834H280.773V146.62Z" fill="#EAEAEA"/>
<path d="M305.19 146.62H292.986V158.834H305.19V146.62Z" fill="#EAEAEA"/>
<path d="M329.608 146.62H317.404V158.834H329.608V146.62Z" fill="#EAEAEA"/>
<path d="M354.014 146.62H341.811V158.834H354.014V146.62Z" fill="#EAEAEA"/>
<path d="M378.431 146.62H366.228V158.834H378.431V146.62Z" fill="#EAEAEA"/>
<path d="M402.848 146.62H390.645V158.834H402.848V146.62Z" fill="#EAEAEA"/>
<path d="M427.266 146.62H415.062V158.834H427.266V146.62Z" fill="#EAEAEA"/>
<path d="M451.683 146.62H439.479V158.834H451.683V146.62Z" fill="#EAEAEA"/>
<path d="M476.089 146.62H463.886V158.834H476.089V146.62Z" fill="#EAEAEA"/>
<path d="M500.507 146.62H488.304V158.834H500.507V146.62Z" fill="#EAEAEA"/>
<path d="M524.924 146.62H512.721V158.834H524.924V146.62Z" fill="#EAEAEA"/>
<path d="M549.342 146.62H537.139V158.834H549.342V146.62Z" fill="#EAEAEA"/>
<path d="M573.759 146.62H561.556V158.834H573.759V146.62Z" fill="#EAEAEA"/>
<path d="M598.165 146.62H585.962V158.834H598.165V146.62Z" fill="#EAEAEA"/>
<path d="M622.582 146.62H610.379V158.834H622.582V146.62Z" fill="#EAEAEA"/>
<path d="M647 146.62H634.797V158.834H647V146.62Z" fill="#EAEAEA"/>
<path d="M12.2032 171.059H0V183.273H12.2032V171.059Z" fill="#EAEAEA"/>
<path d="M36.6202 171.059H24.417V183.273H36.6202V171.059Z" fill="#EAEAEA"/>
<path d="M61.0382 171.059H48.835V183.273H61.0382V171.059Z" fill="#EAEAEA"/>
<path d="M85.4444 171.059H73.2412V183.273H85.4444V171.059Z" fill="#EAEAEA"/>
<path d="M109.861 171.059H97.6582V183.273H109.861V171.059Z" fill="#EAEAEA"/>
<path d="M134.279 171.059H122.076V183.273H134.279V171.059Z" fill="#EAEAEA"/>
<path d="M158.696 171.059H146.493V183.273H158.696V171.059Z" fill="#EAEAEA"/>
<path d="M183.113 171.059H170.91V183.273H183.113V171.059Z" fill="#EAEAEA"/>
<path d="M207.521 171.059H195.317V183.273H207.521V171.059Z" fill="#EAEAEA"/>
<path d="M231.938 171.059H219.734V183.273H231.938V171.059Z" fill="#EAEAEA"/>
<path d="M256.355 171.059H244.151V183.273H256.355V171.059Z" fill="#EAEAEA"/>
<path d="M280.773 171.059H268.569V183.273H280.773V171.059Z" fill="#EAEAEA"/>
<path d="M305.19 171.059H292.986V183.273H305.19V171.059Z" fill="#EAEAEA"/>
<path d="M329.608 171.059H317.404V183.273H329.608V171.059Z" fill="#EAEAEA"/>
<path d="M354.014 171.059H341.811V183.273H354.014V171.059Z" fill="#EAEAEA"/>
<path d="M378.431 171.059H366.228V183.273H378.431V171.059Z" fill="#EAEAEA"/>
<path d="M402.848 171.059H390.645V183.273H402.848V171.059Z" fill="#EAEAEA"/>
<path d="M427.266 171.059H415.062V183.273H427.266V171.059Z" fill="#EAEAEA"/>
<path d="M451.683 171.059H439.479V183.273H451.683V171.059Z" fill="#EAEAEA"/>
<path d="M476.089 171.059H463.886V183.273H476.089V171.059Z" fill="#EAEAEA"/>
<path d="M500.507 171.059H488.304V183.273H500.507V171.059Z" fill="#EAEAEA"/>
<path d="M524.924 171.059H512.721V183.273H524.924V171.059Z" fill="#EAEAEA"/>
<path d="M549.342 171.059H537.139V183.273H549.342V171.059Z" fill="#EAEAEA"/>
<path d="M573.759 171.059H561.556V183.273H573.759V171.059Z" fill="#EAEAEA"/>
<path d="M598.165 171.059H585.962V183.273H598.165V171.059Z" fill="#EAEAEA"/>
<path d="M622.582 171.059H610.379V183.273H622.582V171.059Z" fill="#EAEAEA"/>
<path d="M647 171.059H634.797V183.273H647V171.059Z" fill="#EAEAEA"/>
<path d="M12.2032 195.487H0V207.7H12.2032V195.487Z" fill="#EAEAEA"/>
<path d="M36.6202 195.487H24.417V207.7H36.6202V195.487Z" fill="#EAEAEA"/>
<path d="M61.0382 195.487H48.835V207.7H61.0382V195.487Z" fill="#EAEAEA"/>
<path d="M85.4444 195.487H73.2412V207.7H85.4444V195.487Z" fill="#EAEAEA"/>
<path d="M109.861 195.487H97.6582V207.7H109.861V195.487Z" fill="#EAEAEA"/>
<path d="M134.279 195.487H122.076V207.7H134.279V195.487Z" fill="#EAEAEA"/>
<path d="M158.696 195.487H146.493V207.7H158.696V195.487Z" fill="#EAEAEA"/>
<path d="M183.113 195.487H170.91V207.7H183.113V195.487Z" fill="#EAEAEA"/>
<path d="M207.521 195.487H195.317V207.7H207.521V195.487Z" fill="#EAEAEA"/>
<path d="M231.938 195.487H219.734V207.7H231.938V195.487Z" fill="#EAEAEA"/>
<path d="M256.355 195.487H244.151V207.7H256.355V195.487Z" fill="#EAEAEA"/>
<path d="M280.773 195.487H268.569V207.7H280.773V195.487Z" fill="#EAEAEA"/>
<path d="M305.19 195.487H292.986V207.7H305.19V195.487Z" fill="#EAEAEA"/>
<path d="M329.608 195.487H317.404V207.7H329.608V195.487Z" fill="#EAEAEA"/>
<path d="M354.014 195.487H341.811V207.7H354.014V195.487Z" fill="#EAEAEA"/>
<path d="M378.431 195.487H366.228V207.7H378.431V195.487Z" fill="#EAEAEA"/>
<path d="M402.848 195.487H390.645V207.7H402.848V195.487Z" fill="#EAEAEA"/>
<path d="M427.266 195.487H415.062V207.7H427.266V195.487Z" fill="#EAEAEA"/>
<path d="M451.683 195.487H439.479V207.7H451.683V195.487Z" fill="#EAEAEA"/>
<path d="M476.089 195.487H463.886V207.7H476.089V195.487Z" fill="#EAEAEA"/>
<path d="M500.507 195.487H488.304V207.7H500.507V195.487Z" fill="#EAEAEA"/>
<path d="M524.924 195.487H512.721V207.7H524.924V195.487Z" fill="#EAEAEA"/>
<path d="M549.342 195.487H537.139V207.7H549.342V195.487Z" fill="#EAEAEA"/>
<path d="M573.759 195.487H561.556V207.7H573.759V195.487Z" fill="#EAEAEA"/>
<path d="M598.165 195.487H585.962V207.7H598.165V195.487Z" fill="#EAEAEA"/>
<path d="M622.582 195.487H610.379V207.7H622.582V195.487Z" fill="#EAEAEA"/>
<path d="M647 195.487H634.797V207.7H647V195.487Z" fill="#EAEAEA"/>
<path d="M12.2032 219.925H0V232.139H12.2032V219.925Z" fill="#EAEAEA"/>
<path d="M36.6202 219.925H24.417V232.139H36.6202V219.925Z" fill="#EAEAEA"/>
<path d="M61.0382 219.925H48.835V232.139H61.0382V219.925Z" fill="#EAEAEA"/>
<path d="M85.4444 219.925H73.2412V232.139H85.4444V219.925Z" fill="#EAEAEA"/>
<path d="M109.861 219.925H97.6582V232.139H109.861V219.925Z" fill="#EAEAEA"/>
<path d="M134.279 219.925H122.076V232.139H134.279V219.925Z" fill="#EAEAEA"/>
<path d="M158.696 219.925H146.493V232.139H158.696V219.925Z" fill="#EAEAEA"/>
<path d="M183.113 219.925H170.91V232.139H183.113V219.925Z" fill="#EAEAEA"/>
<path d="M207.521 219.925H195.317V232.139H207.521V219.925Z" fill="#EAEAEA"/>
<path d="M231.938 219.925H219.734V232.139H231.938V219.925Z" fill="#EAEAEA"/>
<path d="M256.355 219.925H244.151V232.139H256.355V219.925Z" fill="#EAEAEA"/>
<path d="M280.773 219.925H268.569V232.139H280.773V219.925Z" fill="#EAEAEA"/>
<path d="M305.19 219.925H292.986V232.139H305.19V219.925Z" fill="#EAEAEA"/>
<path d="M329.608 219.925H317.404V232.139H329.608V219.925Z" fill="#EAEAEA"/>
<path d="M354.014 219.925H341.811V232.139H354.014V219.925Z" fill="#EAEAEA"/>
<path d="M378.431 219.925H366.228V232.139H378.431V219.925Z" fill="#EAEAEA"/>
<path d="M402.848 219.925H390.645V232.139H402.848V219.925Z" fill="#EAEAEA"/>
<path d="M427.266 219.925H415.062V232.139H427.266V219.925Z" fill="#EAEAEA"/>
<path d="M451.683 219.925H439.479V232.139H451.683V219.925Z" fill="#EAEAEA"/>
<path d="M476.089 219.925H463.886V232.139H476.089V219.925Z" fill="#EAEAEA"/>
<path d="M500.507 219.925H488.304V232.139H500.507V219.925Z" fill="#EAEAEA"/>
<path d="M524.924 219.925H512.721V232.139H524.924V219.925Z" fill="#EAEAEA"/>
<path d="M549.342 219.925H537.139V232.139H549.342V219.925Z" fill="#EAEAEA"/>
<path d="M573.759 219.925H561.556V232.139H573.759V219.925Z" fill="#EAEAEA"/>
<path d="M598.165 219.925H585.962V232.139H598.165V219.925Z" fill="#EAEAEA"/>
<path d="M622.582 219.925H610.379V232.139H622.582V219.925Z" fill="#EAEAEA"/>
<path d="M647 219.925H634.797V232.139H647V219.925Z" fill="#EAEAEA"/>
<path d="M12.2032 244.364H0V256.578H12.2032V244.364Z" fill="#EAEAEA"/>
<path d="M36.6202 244.364H24.417V256.578H36.6202V244.364Z" fill="#EAEAEA"/>
<path d="M61.0382 244.364H48.835V256.578H61.0382V244.364Z" fill="#EAEAEA"/>
<path d="M85.4444 244.364H73.2412V256.578H85.4444V244.364Z" fill="#EAEAEA"/>
<path d="M109.861 244.364H97.6582V256.578H109.861V244.364Z" fill="#EAEAEA"/>
<path d="M134.279 244.364H122.076V256.578H134.279V244.364Z" fill="#EAEAEA"/>
<path d="M158.696 244.364H146.493V256.578H158.696V244.364Z" fill="#EAEAEA"/>
<path d="M183.113 244.364H170.91V256.578H183.113V244.364Z" fill="#EAEAEA"/>
<path d="M207.521 244.364H195.317V256.578H207.521V244.364Z" fill="#EAEAEA"/>
<path d="M231.938 244.364H219.734V256.578H231.938V244.364Z" fill="#EAEAEA"/>
<path d="M256.355 244.364H244.151V256.578H256.355V244.364Z" fill="#EAEAEA"/>
<path d="M280.773 244.364H268.569V256.578H280.773V244.364Z" fill="#EAEAEA"/>
<path d="M305.19 244.364H292.986V256.578H305.19V244.364Z" fill="#EAEAEA"/>
<path d="M329.608 244.364H317.404V256.578H329.608V244.364Z" fill="#EAEAEA"/>
<path d="M354.014 244.364H341.811V256.578H354.014V244.364Z" fill="#EAEAEA"/>
<path d="M378.431 244.364H366.228V256.578H378.431V244.364Z" fill="#EAEAEA"/>
<path d="M402.848 244.364H390.645V256.578H402.848V244.364Z" fill="#EAEAEA"/>
<path d="M427.266 244.364H415.062V256.578H427.266V244.364Z" fill="#EAEAEA"/>
<path d="M451.683 244.364H439.479V256.578H451.683V244.364Z" fill="#EAEAEA"/>
<path d="M476.089 244.364H463.886V256.578H476.089V244.364Z" fill="#EAEAEA"/>
<path d="M500.507 244.364H488.304V256.578H500.507V244.364Z" fill="#EAEAEA"/>
<path d="M524.924 244.364H512.721V256.578H524.924V244.364Z" fill="#EAEAEA"/>
<path d="M549.342 244.364H537.139V256.578H549.342V244.364Z" fill="#EAEAEA"/>
<path d="M573.759 244.364H561.556V256.578H573.759V244.364Z" fill="#EAEAEA"/>
<path d="M598.165 244.364H585.962V256.578H598.165V244.364Z" fill="#EAEAEA"/>
<path d="M622.582 244.364H610.379V256.578H622.582V244.364Z" fill="#EAEAEA"/>
<path d="M647 244.364H634.797V256.578H647V244.364Z" fill="#EAEAEA"/>
<path d="M12.2032 268.802H0V281.016H12.2032V268.802Z" fill="#EAEAEA"/>
<path d="M36.6202 268.802H24.417V281.016H36.6202V268.802Z" fill="#EAEAEA"/>
<path d="M61.0382 268.802H48.835V281.016H61.0382V268.802Z" fill="#EAEAEA"/>
<path d="M85.4444 268.802H73.2412V281.016H85.4444V268.802Z" fill="#EAEAEA"/>
<path d="M109.861 268.802H97.6582V281.016H109.861V268.802Z" fill="#EAEAEA"/>
<path d="M134.279 268.802H122.076V281.016H134.279V268.802Z" fill="#EAEAEA"/>
<path d="M158.696 268.802H146.493V281.016H158.696V268.802Z" fill="#EAEAEA"/>
<path d="M183.113 268.802H170.91V281.016H183.113V268.802Z" fill="#EAEAEA"/>
<path d="M207.521 268.802H195.317V281.016H207.521V268.802Z" fill="#EAEAEA"/>
<path d="M231.938 268.802H219.734V281.016H231.938V268.802Z" fill="#EAEAEA"/>
<path d="M256.355 268.802H244.151V281.016H256.355V268.802Z" fill="#EAEAEA"/>
<path d="M280.773 268.802H268.569V281.016H280.773V268.802Z" fill="#EAEAEA"/>
<path d="M305.19 268.802H292.986V281.016H305.19V268.802Z" fill="#EAEAEA"/>
<path d="M329.608 268.802H317.404V281.016H329.608V268.802Z" fill="#EAEAEA"/>
<path d="M354.014 268.802H341.811V281.016H354.014V268.802Z" fill="#EAEAEA"/>
<path d="M378.431 268.802H366.228V281.016H378.431V268.802Z" fill="#EAEAEA"/>
<path d="M402.848 268.802H390.645V281.016H402.848V268.802Z" fill="#EAEAEA"/>
<path d="M427.266 268.802H415.062V281.016H427.266V268.802Z" fill="#EAEAEA"/>
<path d="M451.683 268.802H439.479V281.016H451.683V268.802Z" fill="#EAEAEA"/>
<path d="M476.089 268.802H463.886V281.016H476.089V268.802Z" fill="#EAEAEA"/>
<path d="M500.507 268.802H488.304V281.016H500.507V268.802Z" fill="#EAEAEA"/>
<path d="M524.924 268.802H512.721V281.016H524.924V268.802Z" fill="#EAEAEA"/>
<path d="M549.342 268.802H537.139V281.016H549.342V268.802Z" fill="#EAEAEA"/>
<path d="M573.759 268.802H561.556V281.016H573.759V268.802Z" fill="#EAEAEA"/>
<path d="M598.165 268.802H585.962V281.016H598.165V268.802Z" fill="#EAEAEA"/>
<path d="M622.582 268.802H610.379V281.016H622.582V268.802Z" fill="#EAEAEA"/>
<path d="M647 268.802H634.797V281.016H647V268.802Z" fill="#EAEAEA"/>
</svg>
