<svg xmlns="http://www.w3.org/2000/svg" width="896" height="420" viewBox="0 0 896 420" font-family="Helvetica, Arial, sans-serif">
<rect width="896" height="420" fill="#f7f6f2"/>
<line x1="264.0" y1="130.0" x2="356.0" y2="130.0" stroke="#d6d3ca" stroke-width="1.6"/>
<line x1="356.0" y1="130.0" x2="448.0" y2="130.0" stroke="#d6d3ca" stroke-width="1.6"/>
<line x1="448.0" y1="130.0" x2="540.0" y2="130.0" stroke="#d6d3ca" stroke-width="1.6"/>
<line x1="540.0" y1="130.0" x2="632.0" y2="130.0" stroke="#d6d3ca" stroke-width="1.6"/>
<circle cx="264.0" cy="130.0" r="24" fill="#edeae3" stroke="#b8b4aa" stroke-width="1.4"/><text x="264.0" y="130.0" text-anchor="middle" dominant-baseline="central" font-size="15" fill="#4a4a4a">0</text>
<circle cx="356.0" cy="130.0" r="21" fill="#eceafc" stroke="#a09ade" stroke-width="1.4"/><text x="356.0" y="130.0" text-anchor="middle" dominant-baseline="central" font-size="13" fill="#5f58b0">z0</text>
<circle cx="448.0" cy="130.0" r="24" fill="#edeae3" stroke="#b8b4aa" stroke-width="1.4"/><text x="448.0" y="130.0" text-anchor="middle" dominant-baseline="central" font-size="15" fill="#4a4a4a">1</text>
<circle cx="540.0" cy="130.0" r="21" fill="#eceafc" stroke="#a09ade" stroke-width="1.4"/><text x="540.0" y="130.0" text-anchor="middle" dominant-baseline="central" font-size="13" fill="#5f58b0">z1</text>
<circle cx="632.0" cy="130.0" r="24" fill="#edeae3" stroke="#b8b4aa" stroke-width="1.4"/><text x="632.0" y="130.0" text-anchor="middle" dominant-baseline="central" font-size="15" fill="#4a4a4a">2</text>
<text x="264.0" y="75.0" text-anchor="start" font-size="16" fill="#8a877e">d = 3</text>
<line x1="80.0" y1="320.0" x2="172.0" y2="320.0" stroke="#d6d3ca" stroke-width="1.6"/>
<line x1="172.0" y1="320.0" x2="264.0" y2="320.0" stroke="#d6d3ca" stroke-width="1.6"/>
<line x1="264.0" y1="320.0" x2="356.0" y2="320.0" stroke="#d6d3ca" stroke-width="1.6"/>
<line x1="356.0" y1="320.0" x2="448.0" y2="320.0" stroke="#d6d3ca" stroke-width="1.6"/>
<line x1="448.0" y1="320.0" x2="540.0" y2="320.0" stroke="#d6d3ca" stroke-width="1.6"/>
<line x1="540.0" y1="320.0" x2="632.0" y2="320.0" stroke="#d6d3ca" stroke-width="1.6"/>
<line x1="632.0" y1="320.0" x2="724.0" y2="320.0" stroke="#d6d3ca" stroke-width="1.6"/>
<line x1="724.0" y1="320.0" x2="816.0" y2="320.0" stroke="#d6d3ca" stroke-width="1.6"/>
<circle cx="80.0" cy="320.0" r="24" fill="#edeae3" stroke="#b8b4aa" stroke-width="1.4"/><text x="80.0" y="320.0" text-anchor="middle" dominant-baseline="central" font-size="15" fill="#4a4a4a">0</text>
<circle cx="172.0" cy="320.0" r="21" fill="#eceafc" stroke="#a09ade" stroke-width="1.4"/><text x="172.0" y="320.0" text-anchor="middle" dominant-baseline="central" font-size="13" fill="#5f58b0">z0</text>
<circle cx="264.0" cy="320.0" r="24" fill="#edeae3" stroke="#b8b4aa" stroke-width="1.4"/><text x="264.0" y="320.0" text-anchor="middle" dominant-baseline="central" font-size="15" fill="#4a4a4a">1</text>
<circle cx="356.0" cy="320.0" r="21" fill="#eceafc" stroke="#a09ade" stroke-width="1.4"/><text x="356.0" y="320.0" text-anchor="middle" dominant-baseline="central" font-size="13" fill="#5f58b0">z1</text>
<circle cx="448.0" cy="320.0" r="24" fill="#edeae3" stroke="#b8b4aa" stroke-width="1.4"/><text x="448.0" y="320.0" text-anchor="middle" dominant-baseline="central" font-size="15" fill="#4a4a4a">2</text>
<circle cx="540.0" cy="320.0" r="21" fill="#eceafc" stroke="#a09ade" stroke-width="1.4"/><text x="540.0" y="320.0" text-anchor="middle" dominant-baseline="central" font-size="13" fill="#5f58b0">z2</text>
<circle cx="632.0" cy="320.0" r="24" fill="#edeae3" stroke="#b8b4aa" stroke-width="1.4"/><text x="632.0" y="320.0" text-anchor="middle" dominant-baseline="central" font-size="15" fill="#4a4a4a">3</text>
<circle cx="724.0" cy="320.0" r="21" fill="#eceafc" stroke="#a09ade" stroke-width="1.4"/><text x="724.0" y="320.0" text-anchor="middle" dominant-baseline="central" font-size="13" fill="#5f58b0">z3</text>
<circle cx="816.0" cy="320.0" r="24" fill="#edeae3" stroke="#b8b4aa" stroke-width="1.4"/><text x="816.0" y="320.0" text-anchor="middle" dominant-baseline="central" font-size="15" fill="#4a4a4a">4</text>
<text x="80.0" y="265.0" text-anchor="start" font-size="16" fill="#8a877e">d = 5</text>
</svg>